# xmcd
#
# Track frame offsets:
#	150
#	17398
#	34881
#	51559
#	67789
#	82855
#	99493
#	116985
#	134435
#	150631
#
# Disc length: 2212 seconds
#
# Revision: 1
# Processed by: cddbd v1.5.2PL0 Copyright (c) Steve Scherf et al.
# Submitted via: audiograbber 1.83.01
#
DISCID=7b08a20a
DTITLE=Leanne Rimes - Karaoke Leanne Rimes
DYEAR=1900
DGENRE=Karaoke Country
TTITLE0=Leanne Rimes - How Do I Live
TTITLE1=Leanne Rimes - Unchained Melody
TTITLE2=Leanne Rimes - On The Side of Angels
TTITLE3=Leanne Rimes - You Light Up My Life
TTITLE4=Leanne Rimes - Honestly
TTITLE5=Leanne Rimes - How Do I Live (with vocals)
TTITLE6=Leanne Rimes - Unchained Melody (with vocals)
TTITLE7=Leanne Rimes - On The Side Of Angels (with vocals)
TTITLE8=Leanne Rimes - You Light Up My Life (with vocals)
TTITLE9=Leanne Rimes - Honesty (with vocals)
EXTD=
EXTT0=
EXTT1=
EXTT2=
EXTT3=
EXTT4=
EXTT5=
EXTT6=
EXTT7=
EXTT8=
EXTT9=
PLAYORDER=
